<svg width="527" height="249" viewBox="0 0 527 249" fill="none" xmlns="http://www.w3.org/2000/svg">
  <path d="M121.245 32.496L0 247.926C25.689 248.092 95.7201 247.926 95.7201 247.926C107.694 246.768 113.803 244.548 123.7 237.976C130.327 233.699 139.902 220.653 140.88 219.07L242 36.9738C239.055 26.5257 220.892 8.11711 195.367 1.64923C154.527 -6.70927 128.936 18.7311 121.245 32.496Z" fill="url(#paint0_linear_28_2)"/>
  <path d="M405.359 32.5016L526.186 247.968C500.585 248.134 430.796 247.968 430.796 247.968C418.863 246.81 412.776 244.59 402.913 238.016C396.309 233.739 386.766 220.691 385.792 219.107L286 38.3163C288.935 27.8664 306.056 8.11849 331.493 1.64951C372.193 -6.71041 397.695 18.7343 405.359 32.5016Z" fill="url(#paint1_linear_28_2)"/>
  <path d="M286.072 32.5335C293.727 18.7527 319.2 -6.717 359.854 1.65113C381.272 3.9276 398.318 20.1991 407.409 35.9095L429 74.0634C407.636 63.2905 382.249 86.9683 371.045 103.24C362.159 116.145 305.617 219.322 305.617 219.322C304.643 220.908 295.111 233.969 288.515 238.25C278.663 244.83 272.583 246.397 260.664 247.557C260.664 247.557 216.199 248.553 208.87 247.557C201.541 246.561 192.843 241.281 189.325 234.108C184.927 225.143 183.543 217.14 186.767 209.701C188.92 204.732 253.497 89.431 286.072 32.5335Z" fill="url(#paint2_linear_28_2)"/>
  <defs>
    <linearGradient id="paint0_linear_28_2" x1="202.421" y1="89.8131" x2="0.0445341" y2="124.262" gradientUnits="userSpaceOnUse">
      <stop stop-color="#4CDA94"/>
      <stop offset="1" stop-color="#008356"/>
    </linearGradient>
    <linearGradient id="paint1_linear_28_2" x1="331.456" y1="111.114" x2="495.326" y2="236.349" gradientUnits="userSpaceOnUse">
      <stop stop-color="#024C39"/>
      <stop offset="0.485577" stop-color="#008E65"/>
      <stop offset="1" stop-color="#00A76F"/>
    </linearGradient>
    <linearGradient id="paint2_linear_28_2" x1="358.272" y1="6.47536" x2="220.376" y2="255.295" gradientUnits="userSpaceOnUse">
      <stop stop-color="#42CE8B"/>
      <stop offset="1" stop-color="#018557"/>
    </linearGradient>
  </defs>
</svg>

